<?xml version="1.0" encoding="UTF-8"?>
<svg width="120px" height="27px" viewBox="0 0 120 27" version="1.1" xmlns="http://www.w3.org/2000/svg" xmlns:xlink="http://www.w3.org/1999/xlink">
    <!-- Generator: sketchtool 52.1 (67048) - http://www.bohemiancoding.com/sketch -->
    <title>254E9CEB-D079-43C4-A6F0-AF7634470402</title>
    <desc>Created with sketchtool.</desc>
    <g id="Desktop-Design" stroke="none" stroke-width="1" fill="none" fill-rule="evenodd">
        <g id="M1.-Homepage" transform="translate(-80.000000, -21.000000)" fill="#000" fill-rule="nonzero">
            <g id="Group">
                <g id="MobileHeader/normal">
                    <g id="flormar-copy" transform="translate(80.000000, 21.000000)">
                        <path d="M5.79458804,13.4978785 L5.79458804,26.9991514 L1.93096275,26.9991514 L1.93096275,13.4978785 L5.54223334e-13,13.4978785 L5.54223334e-13,9.6426753 L1.93011285,9.6426753 C1.93011285,6.98145645 2.87434684,4.71059496 4.76111502,2.82499921 C6.6470333,0.942797875 8.92390355,0 11.5891761,0 L11.5891761,3.8569004 C9.9913724,3.8569004 8.62559021,4.42291857 7.49437919,5.5549549 C6.36061849,6.68699123 5.79458804,8.04899896 5.79458804,9.6426753 L5.79458804,13.4978785 Z M15.3797104,0 L19.2424857,0 L19.2424857,26.9991514 L15.3797104,26.9991514 L15.3797104,0 Z M31.6203649,26.9991514 C28.9550924,26.9991514 26.679072,26.0546563 24.7940037,24.1750008 C22.9055357,22.2902536 21.9621516,20.0168463 21.9621516,17.3564761 C21.9621516,14.69356 22.9055357,12.4226986 24.7940037,10.5388 C26.6782221,8.65659867 28.9550924,7.7138008 31.6203649,7.7138008 C34.2847876,7.7138008 36.5608079,8.65575007 38.448426,10.5388 C40.3343443,12.4226986 41.2777284,14.69356 41.2777284,17.3564761 C41.2777284,20.0159977 40.3343443,22.2902536 38.448426,24.1750008 C36.5608079,26.0555049 34.2847876,26.9991514 31.6203649,26.9991514 Z M31.6203649,11.5707012 C30.0225612,11.5707012 28.6584788,12.1367194 27.5247181,13.2679071 C26.3926572,14.4016406 25.824927,15.7611026 25.824927,17.3564761 C25.824927,18.9493038 26.3926572,20.3130088 27.5247181,21.4450451 C28.6584788,22.5753842 30.0225612,23.142251 31.6203649,23.142251 C33.214769,23.142251 34.5814011,22.5753842 35.7151618,21.4450451 C36.8480726,20.3130088 37.4141031,18.9493038 37.4141031,17.3564761 C37.4141031,15.7611026 36.8489225,14.4016406 35.7151618,13.2679071 C34.5814011,12.1367194 33.214769,11.5707012 31.6203649,11.5707012 Z M57.1707756,7.7146494 L61.0327011,7.7146494 L61.0327011,8.71854669 C62.1783604,8.04899896 63.4651023,7.7146494 64.8937767,7.7146494 C67.0312641,7.7146494 68.8525903,8.46651161 70.3603051,9.97023604 C70.4775907,10.0864946 70.5872272,10.2027532 70.6900646,10.3173146 C70.7912021,10.2027532 70.9016886,10.0864946 71.0164245,9.97023604 C72.5241392,8.46651161 74.3463153,7.7146494 76.4829528,7.7146494 C78.6204402,7.7146494 80.4426163,8.46651161 81.9477814,9.97023604 C83.4554961,11.4748091 84.2085036,13.2942138 84.2085036,15.4284502 L84.2085036,27 L80.3457282,27 L80.3457282,15.4284502 C80.3457282,14.3609077 79.9709243,13.4529025 79.216217,12.6993431 C78.4640594,11.9466323 77.5521215,11.5707012 76.4829528,11.5707012 C75.4146341,11.5707012 74.503546,11.9457837 73.7488387,12.6993431 C72.9966812,13.4529025 72.6218772,14.3609077 72.6218772,15.4284502 L72.6218772,27 L68.7565521,27 L68.7565521,15.4284502 C68.7565521,14.3609077 68.3808983,13.4529025 67.6270409,12.6993431 C66.8757332,11.9466323 65.9629454,11.5707012 64.8937767,11.5707012 C63.8246081,11.5707012 62.9143699,11.9457837 62.1630623,12.6993431 C61.408355,13.4529025 61.0327011,14.3609077 61.0327011,15.4284502 L61.0327011,27 L57.1707756,27 L57.1707756,7.7146494 Z M102.380971,25.0880976 C100.719425,26.3618506 98.7893121,26.9991514 96.5863828,26.9991514 C93.92281,26.9991514 91.6459398,26.0546563 89.7600215,24.1750008 C87.8732533,22.2902536 86.9298692,20.0168463 86.9298692,17.3564761 C86.9298692,14.69356 87.8732533,12.4226986 89.7600215,10.5388 C91.6459398,8.65659867 93.92281,7.7138008 96.5863828,7.7138008 C98.7893121,7.7138008 100.719425,8.35025301 102.380971,9.62400603 L102.380971,7.7146494 L106.243746,7.7146494 L106.243746,27 L102.380971,27 L102.380971,25.0880976 Z M96.5872327,11.5707012 C94.9902789,11.5707012 93.6270464,12.1367194 92.4932857,13.2679071 C91.3603749,14.4016406 90.7943444,15.7611026 90.7943444,17.3564761 C90.7943444,18.9493038 91.3603749,20.3130088 92.4932857,21.4450451 C93.6261965,22.5753842 94.9902789,23.142251 96.5872327,23.142251 C98.1824867,23.142251 99.5491188,22.5753842 100.68203,21.4450451 C101.81494,20.3130088 102.381821,18.9493038 102.381821,17.3564761 C102.381821,15.7611026 101.81494,14.4016406 100.68203,13.2679071 C99.5491188,12.1367194 98.1816368,11.5707012 96.5872327,11.5707012 Z M53.179666,7.73247006 C53.47288,7.7146494 53.6556075,7.7146494 53.6564574,7.7146494 L53.6564574,11.5715498 C52.0595036,11.5715498 50.5084442,11.9254172 49.3755334,13.056605 C48.2443224,14.1869441 47.8610195,15.7619512 47.8610195,17.3573247 L47.8610195,26.9991514 L43.999094,26.9991514 L43.999094,16.9364176 L43.999094,14.7461734 C44.0628362,14.3778797 44.1656735,14.0299525 44.2863587,13.699846 C45.4685634,9.88707295 48.849448,8.50639595 51.2113079,8.00402301 C51.8393807,7.85042587 52.4980498,7.76047396 53.179666,7.73247006 Z M118.947135,7.73247006 C119.240349,7.7146494 119.423077,7.7146494 119.423077,7.7146494 L119.423077,11.5715498 C117.826123,11.5715498 116.275914,11.9254172 115.143003,13.056605 C114.010092,14.1869441 113.630189,15.7619512 113.630189,17.3573247 L113.630189,26.9991514 L109.767413,26.9991514 L109.767413,16.9364176 L109.767413,14.7461734 C109.830306,14.3778797 109.931443,14.0299525 110.053828,13.699846 C111.235183,9.88707295 114.616068,8.50639595 116.978777,8.00402301 C117.60685,7.85042587 118.264669,7.76047396 118.947135,7.73247006 Z M12.9507088,11.8804413 C12.9507088,13.3510702 11.7557556,14.5450545 10.2811868,14.5450545 C8.80746786,14.5450545 7.61166478,13.3519188 7.61166478,11.8804413 C7.61166478,10.4089638 8.80746786,9.21497941 10.2811868,9.21497941 C11.7557556,9.21413081 12.9507088,10.4081152 12.9507088,11.8804413 Z"></path>
                    </g>
                </g>
            </g>
        </g>
    </g>
</svg>