<svg id="Layer_1" data-name="Layer 1" xmlns="http://www.w3.org/2000/svg" viewBox="0 0 1235.74 147.89"><defs><style>.cls-1{fill:#002d56;}</style></defs><path class="cls-1" d="M181.42,75.13c6.82-15-2.55-20.86-24.77-20.86l-37.16,0c-8.07,0-9.78-.66-8-4.55l2.67-5.8c1.64-3.75,4-4.48,12.11-4.49l48.67,0c10,0,14.29,1.32,19.72,3.41l4.83-20.53H102.42c-18.52,0-32.9,8.39-40.25,24.58L51.73,70c-8,17.23-2.27,22.37,18.54,22.37H113c8.17,0,9.51.81,7.78,4.55l-3.26,7.1c-1.69,3.85-3.8,4.48-11.92,4.5H55c-10.41,0-14.53-1.94-18.76-3.86L31,125.76l94.46,0c25.13,0,36.89-9.12,44.32-25.33Z"/><path class="cls-1" d="M434.83,80.7c12.1,0,17.41,1.47,22.43,2.77L467.62,60.9a110,110,0,0,1-24.88,2.68H405.37l11.16-24.17,42.57,0c12.31,0,17.62,1.41,22.63,2.75l4.84-19.88H367.71c.79,4.08.61,7.92-3.84,17.74l-31,67.88a56.52,56.52,0,0,1-7.74,12.9,94.16,94.16,0,0,1-7-16.26L301.37,52.79,336,32.47c9.88-5.86,15.31-7.61,22.7-10.21l-47.88,0a27.77,27.77,0,0,1-1.27,3.87c-1.57,3.46-4.12,6-12.42,11.21L247,68.7,260,40c4.49-9.84,8-13.65,12.43-17.75l-61,0c.82,4.07.73,7.88-3.78,17.71l-31,67.91c-4.47,9.81-7.92,13.63-12.39,17.82h60.87c-.63-4.19-.63-8,3.82-17.84l7.15-15.5,17.24-10.54L264,125.71l177.34,0,13.86-19.93a104,104,0,0,1-24.78,2.75H384.85L397.63,80.7Z"/><path class="cls-1" d="M591.65,100.55a181.32,181.32,0,0,1-37.36,3.86s-20.31.06-24.52,0c-5.31,0-6.94-1.49-4.92-6.57s22.23-48.56,22.23-48.56c.71-1.57,3.24-5.87,9.77-5.87h38.46a57.55,57.55,0,0,1,18.15,3.22l6.12-23.8-.31,0,.18-.64H537c-22.42,0-38.51,8.07-48.73,30.41L468.83,95.28c-10.23,22.21-1.4,30.39,20.84,30.39l84.63,0Z"/><path class="cls-1" d="M741.35,107.79l31.07-67.9c4.44-9.8,8-13.62,12.34-17.71l-60.92,0c.74,4.06.71,7.88-3.82,17.69L709.27,63.55H670.16L681,39.93c4.54-9.85,8-13.67,12.45-17.73l-61,0c.75,4.07.68,7.86-3.91,17.7l-31,67.91c-4.54,9.77-8,13.66-12.51,17.8l61,0c-.7-4.13-.67-8,3.92-17.79l12.44-27.17,39,0L689,107.82c-4.5,9.78-8,13.65-12.42,17.8h60.87C736.74,121.47,736.83,117.6,741.35,107.79Z"/><path class="cls-1" d="M851.27,108.41H805.85L818.5,80.63h37.33c12,0,17.41,1.46,22.36,2.75l10.34-22.55a109,109,0,0,1-24.78,2.7H826.32l11.12-24.2H880.1c12.32,0,17.58,1.41,22.61,2.73l4.77-19.86-118.8,0c.7,4.07.62,7.88-3.92,17.73l-31,67.86c-4.55,9.81-8.08,13.68-12.44,17.81l120.92,0,13.84-19.93A99.9,99.9,0,0,1,851.27,108.41Z"/><path class="cls-1" d="M1020.39,80.58c11.47-.58,21.69-1.41,28.68-16.58l8.65-19c7.92-17.34-1.15-22.82-25.14-22.82H919.74c2,4.1,1.94,7.89-2.6,17.75l-31,67.89c-4.49,9.8-7.92,13.65-12.49,17.8l61,0c-.72-4.14-.66-8,3.83-17.79l12.37-27.17,16.14,0,4.3,45h58.56c-2.81-3.93-2.87-9.29-4.06-15.88Zm-15.1-35.53L999.6,57.69c-2.28,5-4.58,5.81-11.35,5.81H958.68l11.22-24.2,29.46,0C1006.06,39.27,1007.67,40,1005.29,45.05Z"/><path class="cls-1" d="M1117.55,43.76c1.76-3.75,4-4.5,12.24-4.53l48.63,0c10.12,0,14.19,1.33,19.7,3.41l6.75-20.58-99.09.05c-18.46,0-32.76,8.38-40.2,24.59l-10.42,23.11c-8,17.25-2.22,22.39,18.56,22.39l42.7,0c8.1,0,9.57.8,7.77,4.58l-3.25,7.09c-1.69,3.84-3.74,4.49-12,4.49l-50.53,0c-10.22,0-14.54-1.94-18.8-3.87l-5.06,21,94.35,0c25.17,0,37-9.15,44.42-25.36l11.56-25.25c6.89-15-2.46-20.86-24.79-20.85h-37.14c-8.18,0-9.83-.61-8-4.53Z"/><path class="cls-1" d="M1175.43,110.09a7.74,7.74,0,1,1-7.74,7.72,7.67,7.67,0,0,1,7.74-7.72Zm-.07,1.54a6.2,6.2,0,1,0,5.94,6.21,6,6,0,0,0-5.94-6.21Zm-1.3,10.67h-1.81v-8.58a15.88,15.88,0,0,1,2.74-.24,4.71,4.71,0,0,1,3,.69,2.18,2.18,0,0,1,.75,1.85,2,2,0,0,1-1.64,2v.07c.75.13,1.23.82,1.37,2.09a6.85,6.85,0,0,0,.48,2.13H1177a7,7,0,0,1-.52-2.23,1.41,1.41,0,0,0-1.61-1.3h-.83Zm0-4.94h.86c1.06,0,1.89-.34,1.89-1.24,0-.72-.52-1.26-1.75-1.26a9,9,0,0,0-1,0Z"/></svg>