<svg width="170" height="51" viewBox="0 0 170 51" fill="none" xmlns="http://www.w3.org/2000/svg">
<g id="Version=tarte" clip-path="url(#clip0_25_2029)">
<path id="Vector" d="M11.5318 0H6.62808V13.5188H0V17.517H6.62808V49.8258H11.5318V17.5088H19.186V13.5108H11.5318V0ZM58.8704 20.1931C56.9948 17.6385 54.791 15.7571 52.3012 14.5001C49.7863 13.2432 46.9853 12.6268 43.8984 12.6268C38.5572 12.6268 33.9898 14.4677 30.1712 18.1739C26.3778 21.8961 24.4599 26.3483 24.4599 31.5548C24.4599 36.8748 26.3609 41.4 30.1123 45.1142C33.8805 48.8365 38.4563 50.6855 43.7722 50.6855C46.7582 50.6855 49.5255 50.1016 52.0489 48.9177C54.5806 47.7336 56.8433 45.9413 58.8704 43.5652V49.8096H63.7573V13.5188H58.8704V20.1931ZM57.2555 39.2914C55.977 41.4729 54.1517 43.2084 51.7881 44.506C49.4077 45.7873 46.9265 46.4198 44.2937 46.4198C41.6862 46.4198 39.2217 45.7711 36.9339 44.4897C34.6544 43.2084 32.846 41.3756 31.4834 39.0643C30.1376 36.7369 29.4562 34.2959 29.4562 31.7575C29.4562 29.1786 30.1207 26.7538 31.4834 24.4426C32.8039 22.1395 34.6376 20.3553 36.9086 19.074C39.1713 17.8008 41.6441 17.1763 44.3357 17.1763C48.5077 17.1763 52.0237 18.5793 54.8835 21.3933C57.718 24.2155 59.1732 27.7189 59.1732 31.8954C59.1648 34.6283 58.5172 37.0936 57.2555 39.2914ZM82.4387 14.1433C80.7985 15.1732 79.2341 16.7303 77.7537 18.8306V13.5188H72.8668V49.8258H77.7537V37.5641C77.7537 31.271 78.0565 27.1026 78.6453 25.0345C79.4527 22.3422 80.5799 20.3634 82.0938 19.074C83.5826 17.8008 85.1472 17.1763 86.7706 17.1763C87.4771 17.1763 88.3099 17.3791 89.3444 17.7926L91.8762 13.8675C90.3453 13.0485 88.9154 12.6349 87.578 12.6349C85.7864 12.6349 84.0705 13.1377 82.4387 14.1433ZM108.69 0H103.803V13.5188H97.1584V17.517H103.803V49.8258H108.69V17.5088H116.361V13.5108H108.69V0ZM152.875 19.6498C149.031 14.9705 143.891 12.6349 137.491 12.6349C131.274 12.6349 126.304 14.9218 122.577 19.4875C119.65 23.072 118.178 27.1837 118.178 31.7656C118.178 36.6558 119.911 41.0188 123.367 44.9033C126.833 48.7554 131.602 50.7017 137.734 50.7017C140.502 50.7017 142.999 50.3044 145.179 49.5096C147.374 48.6987 149.325 47.5146 151.083 45.9819C152.832 44.4329 154.381 42.3974 155.7 39.8672L151.639 37.8155C150.149 40.1835 148.787 41.8702 147.525 42.9408C146.238 44.0032 144.715 44.8304 142.899 45.4873C141.107 46.1036 139.231 46.428 137.314 46.428C133.352 46.428 130.046 45.0898 127.339 42.4056C124.63 39.6969 123.25 36.2503 123.15 32.0414H156.996C156.98 27.0782 155.583 22.9585 152.875 19.6498ZM123.645 28.0271C124.647 24.7021 126.118 22.1881 128.061 20.5175C130.703 18.2225 133.865 17.0709 137.567 17.0709C139.786 17.0709 141.932 17.525 143.967 18.4415C145.995 19.3416 147.626 20.5581 148.854 22.0422C150.09 23.5262 151.041 25.5293 151.68 28.0189H123.645V28.0271ZM158.62 14.2406H160.327V18.5874H161.395V14.2406H163.119V13.3809H158.628V14.2406H158.62ZM169.605 13.3809H168.041L167.115 15.968C167.015 16.3249 166.871 16.7871 166.761 17.2412H166.728C166.61 16.706 166.501 16.3167 166.366 15.9274L165.449 13.3809H163.835L163.44 18.5874H164.466L164.668 15.5301C164.684 15.0678 164.701 14.5568 164.701 14.0866H164.759C164.887 14.5406 165.054 15.1651 165.156 15.5625L166.106 18.5144H167.208L168.175 15.6274C168.334 15.1489 168.494 14.5488 168.629 14.0866H168.688C168.705 14.6623 168.705 15.1408 168.722 15.5301L168.924 18.5874H169.991L169.605 13.3809Z" fill="#532D6B"/>
</g>
<defs>
<clipPath id="clip0_25_2029">
<rect width="170" height="50.7017" fill="white"/>
</clipPath>
</defs>
</svg>
